<?xml version="1.0" encoding="UTF-8"?>
<svg width="24px" height="24px" viewBox="0 0 24 24" version="1.1" xmlns="http://www.w3.org/2000/svg" xmlns:xlink="http://www.w3.org/1999/xlink">
    <title>briefcase</title>
    <g id="briefcase" stroke="none" stroke-width="1" fill="none" fill-rule="evenodd">
        <rect id="16x16" x="0" y="0" width="24" height="24"></rect>
        <g transform="translate(6.000000, 6.000000)" fill="#FFFFFF" fill-rule="nonzero" id="Shape">
            <path d="M11.2554358,3.02107365 L9.19666135,3.02107365 L9.19666135,0.656698201 C9.19666135,0.294017035 8.90264452,1.74979495e-16 8.53996336,1.74979495e-16 L3.46006291,1.74979495e-16 C3.09738175,1.74979495e-16 2.80336492,0.294017035 2.80336492,0.656698201 L2.80336492,3.02104738 L0.74459045,3.02104738 C0.333366168,3.02107365 0,3.35443982 0,3.7656641 L0,10.8919931 C0,11.3032174 0.333366168,11.6366098 0.74459045,11.6366098 L11.2554095,11.6366098 C11.6666338,11.6366098 12,11.3032436 12,10.8919931 L12,3.7656641 C12,3.35443982 11.6666601,3.02107365 11.2554358,3.02107365 Z M7.88326537,3.02104738 L4.1167609,3.02104738 L4.1167609,1.31339619 L7.88326537,1.31339619 L7.88326537,3.02104738 Z"></path>
        </g>
    </g>
</svg>