<?xml version="1.0" encoding="UTF-8"?>
<svg width="24px" height="24px" viewBox="0 0 24 24" version="1.1" xmlns="http://www.w3.org/2000/svg" xmlns:xlink="http://www.w3.org/1999/xlink">
    <title>discord</title>
    <g id="discord" stroke="none" stroke-width="1" fill="none" fill-rule="evenodd">
        <rect id="16x16" x="0" y="0" width="24" height="24"></rect>
        <g transform="translate(4.000000, 6.000000)" fill="#FFFFFF" fill-rule="nonzero" id="Shape">
            <path d="M14.0105079,1.4290718 C12.9332064,0.594878704 11.6333839,0.0976966059 10.2743724,0 L10.2089901,0 L9.99416229,0.214827788 C11.2420731,0.537720871 12.4051782,1.12723988 13.4033859,1.94279043 C11.3066332,0.804824565 8.90335089,0.360135586 6.53823701,0.672504378 C6.46066825,0.663380132 6.38229731,0.663380132 6.30472855,0.672504378 C5.23059565,0.800688071 4.18198834,1.09039339 3.1943958,1.53181553 C2.69001751,1.75598365 2.38178634,1.91476941 2.38178634,1.91476941 C3.42591188,1.07364202 4.64504018,0.476843608 5.94979568,0.168126095 L5.8096906,0 L5.74430823,0 C4.38554029,0.0987919082 3.08602394,0.595856912 2.0081728,1.4290718 C0.745524037,3.87900242 0.0586924933,6.58479924 0,9.34033859 C0.965097308,10.6821562 2.53223773,11.4587303 4.18447169,11.4138938 C4.18447169,11.4138938 4.68884997,10.8067717 5.11850555,10.2837128 C4.15215619,10.0515102 3.29680881,9.49008532 2.69935785,8.69585522 L3.08231173,8.92936369 L3.13835377,8.92936369 L3.25977817,9.0040864 C3.60537069,9.19089317 3.95096322,9.34033859 4.2591944,9.47110333 C4.91062944,9.73335633 5.58643029,9.93046491 6.27670753,10.0595447 C7.44951653,10.2803313 8.6532272,10.2803313 9.82603619,10.0595447 C10.5086094,9.93626017 11.1757124,9.73894801 11.8155283,9.47110333 C12.3702364,9.26356569 12.8997579,8.99410505 13.3940455,8.66783421 C12.7777852,9.47586261 11.8992553,10.0439346 10.9095155,10.2743724 L11.8435493,11.3671921 C13.4767549,11.4102446 15.0282286,10.6536833 16,9.34033859 C15.9470969,6.58626826 15.2666744,3.88055049 14.0105079,1.4290718 Z M5.4454174,8.07939288 C5.05465973,8.06248118 4.6868496,7.89016879 4.42375149,7.60076087 C4.16065338,7.31135294 4.02407096,6.92883354 4.04436661,6.53823701 C4.02923698,6.15262873 4.16868422,5.77693817 4.43174419,5.49458714 C4.69480416,5.2122361 5.05970379,5.04659435 5.4454174,5.0344425 C5.83034487,5.04653957 6.19434537,5.21248871 6.45592728,5.49513762 C6.71750918,5.77778653 6.85482323,6.15352625 6.83712785,6.53823701 C6.86262563,6.92856228 6.72909596,7.31259537 6.46693993,7.60290239 C6.20478389,7.89320941 5.83631277,8.06508324 5.4454174,8.07939288 Z M10.4424985,8.07939288 C10.0525045,8.06254819 9.6855775,7.88992378 9.42395733,7.60021016 C9.16233716,7.31049655 9.02790385,6.9279233 9.05078809,6.53823701 C9.03563367,6.15419218 9.17381091,5.77988263 9.43486723,5.49780164 C9.69592355,5.21572064 10.0584314,5.04902144 10.4424985,5.0344425 C11.243719,5.06485021 11.8698248,5.73687043 11.8435493,6.53823701 C11.8690647,6.93012864 11.7342788,7.31557178 11.4701058,7.60616207 C11.2059328,7.89675235 10.8350414,8.0675542 10.4424985,8.07939288 Z"></path>
        </g>
    </g>
</svg>