<?xml version="1.0" encoding="UTF-8"?>
<svg width="24px" height="24px" viewBox="0 0 24 24" version="1.1" xmlns="http://www.w3.org/2000/svg" xmlns:xlink="http://www.w3.org/1999/xlink">
    <title>discord 2</title>
    <g id="discord" stroke="none" stroke-width="1" fill="none" fill-rule="evenodd">
        <rect id="16x16" x="0" y="0" width="24" height="24"></rect>
        <g id="discordo" transform="translate(4.000000, 6.000000)" fill="#FFFFFF">
            <path d="M5.81818182,0 C5.81818182,0 6,0.4 6.03636364,0.909090909 L6.15541389,0.90912881 C6.96161169,0.759752787 7.63914613,0.727272727 8,0.727272727 C8.36085387,0.727272727 9.03838831,0.759752787 9.84458611,0.90912881 L9.96363636,0.909090909 C10,0.4 10.1818182,0 10.1818182,0 C10.1818182,0 12.4363636,0.181818182 13.8181818,1.27272727 C14.4727273,1.89090909 16,5.96363636 16,9.45454545 C15.0545455,11.0909091 12.4,11.6 11.7090909,11.6363636 L10.6909091,10.2181818 C9.9474133,10.4093109 9.05312377,10.5454545 8,10.5454545 C6.94305884,10.5454545 6.04610549,10.4083221 5.30816161,10.2162403 L4.29090909,11.6363636 C3.6,11.6 0.945454545,11.0909091 0,9.45454545 C0,5.96363636 1.52727273,1.89090909 2.18181818,1.27272727 C3.56363636,0.181818182 5.81818182,0 5.81818182,0 Z M5.63636364,5.09090909 C4.94545455,5.09090909 4.36363636,5.74545455 4.36363636,6.54545455 C4.36363636,7.34545455 4.94545455,8 5.63636364,8 C6.32727273,8 6.90909091,7.34545455 6.90909091,6.54545455 C6.90909091,5.74545455 6.32727273,5.09090909 5.63636364,5.09090909 Z M10.3636364,5.09090909 C9.67272727,5.09090909 9.09090909,5.74545455 9.09090909,6.54545455 C9.09090909,7.34545455 9.67272727,8 10.3636364,8 C11.0545455,8 11.6363636,7.34545455 11.6363636,6.54545455 C11.6363636,5.74545455 11.0545455,5.09090909 10.3636364,5.09090909 Z" id="Combined-Shape"></path>
        </g>
    </g>
</svg>