<?xml version="1.0" encoding="UTF-8"?>
<svg width="24px" height="24px" viewBox="0 0 24 24" version="1.1" xmlns="http://www.w3.org/2000/svg" xmlns:xlink="http://www.w3.org/1999/xlink">
    <title>faq</title>
    <g id="faq" stroke="none" stroke-width="1" fill="none" fill-rule="evenodd">
        <rect id="16x16" x="0" y="0" width="24" height="24"></rect>
        <g transform="translate(5.000000, 5.000000)" fill="#FFFFFF" fill-rule="nonzero">
            <path d="M13.2918779,11.9607231 C14.0629234,10.6082652 14.212099,8.98864514 13.7010667,7.51810114 C13.4667034,6.85062796 13.1003382,6.23717938 12.6238144,5.71432982 C12.6282509,6.36903422 12.5411156,7.02114297 12.3649398,7.65171383 C11.545662,10.4592225 9.04679915,12.4462701 6.12689736,12.6120849 L5.77616405,12.6120849 C5.26756368,12.6151623 4.76032915,12.5591143 4.2646705,12.4450691 C5.96537781,14.8483654 9.29122281,15.4201118 11.6968764,13.7227404 L13.9599413,14.2905944 L13.3169302,12.0191786 C13.3003405,12.0043608 13.2911668,11.9829555 13.2918779,11.9607231 L13.2918779,11.9607231 Z" id="Path"></path>
            <path d="M5.85132119,0.00238733318 C3.78969299,-0.0572475896 1.85737112,1.0040193 0.801587239,2.77579455 C-0.254196644,4.5475698 -0.26793371,6.75210297 0.765688184,8.5368979 L0.0057660103,10.9502771 L2.51100395,10.3740724 C3.5439005,11.0923996 4.78715773,11.4450967 6.04338943,11.3761676 C9.0678469,11.1691295 11.4000492,8.62916593 11.3488632,5.59806255 C11.2976772,2.56695917 8.88104467,0.107188875 5.85132119,0.00238733318 Z M5.69265612,9.23001373 C5.41427519,9.23680551 5.15950507,9.07434288 5.04823414,8.81907664 C4.93696322,8.5638104 4.99135422,8.26658398 5.18581212,8.06726464 C5.38027001,7.8679453 5.67606305,7.80623307 5.9339985,7.91116817 C6.19193395,8.01610327 6.36063673,8.26678493 6.36071957,8.54524869 C6.37010082,8.72665171 6.30330738,8.9037319 6.17646004,9.03375042 C6.04961271,9.16376894 5.87423545,9.23491372 5.69265612,9.23001373 Z M7.52147981,5.53061238 C7.21603733,5.93345607 6.78825914,6.22645484 6.30226402,6.36569169 L6.30226402,6.73312658 L6.30226402,6.73312658 C6.30226402,7.08825179 6.01437816,7.37613765 5.65925295,7.37613765 C5.30412774,7.37613765 5.01624188,7.08825179 5.01624188,6.73312658 C5.01624188,6.73312658 5.01624188,6.14022027 5.01624188,5.82289014 C5.03383264,5.48868752 5.30790933,5.2255739 5.64255136,5.22163303 L5.64255136,5.22163303 C5.96974149,5.20130139 6.27307871,5.04356604 6.47763068,4.78739179 C6.69819223,4.45861453 6.7206382,4.03534765 6.53608623,3.6850871 C6.3292878,3.35588739 5.95435193,3.17165166 5.56739423,3.20909189 C5.1797263,3.2215612 4.84344703,3.48049624 4.73231491,3.85210296 C4.66615192,4.00737343 4.54086651,4.12989471 4.38415884,4.19257778 C4.22745117,4.25526085 4.05222982,4.25294227 3.8972356,4.18613468 C3.74043283,4.12180223 3.61639726,3.99666689 3.55345144,3.83930235 C3.49050562,3.6819378 3.49402425,3.50578079 3.56320388,3.35105537 C3.88031629,2.5288319 4.6613608,1.97847564 5.54234185,1.95647292 C6.39773618,1.88763084 7.21761255,2.31215182 7.6550925,3.05042682 C8.09792523,3.83249596 8.0457691,4.80064409 7.52147981,5.53061238 L7.52147981,5.53061238 Z" id="Shape"></path>
        </g>
    </g>
</svg>