<?xml version="1.0" encoding="UTF-8"?>
<svg width="24px" height="24px" viewBox="0 0 24 24" version="1.1" xmlns="http://www.w3.org/2000/svg" xmlns:xlink="http://www.w3.org/1999/xlink">
    <title>mic</title>
    <g id="mic" stroke="none" stroke-width="1" fill="none" fill-rule="evenodd">
        <rect id="16x16" x="0" y="0" width="24" height="24"></rect>
        <g transform="translate(7.000000, 4.000000)" fill="#FFFFFF" fill-rule="nonzero">
            <path d="M10,6.32580645 C10,5.94193548 9.68709677,5.62903226 9.30322581,5.62903226 C8.91935484,5.62903226 8.60645161,5.94193548 8.60645161,6.32580645 C8.60645161,8.31612903 6.98709677,9.93225806 5,9.93225806 C3.01290323,9.93225806 1.39354839,8.31290323 1.39354839,6.32580645 C1.39354839,5.94193548 1.08064516,5.62903226 0.696774194,5.62903226 C0.312903226,5.62903226 0,5.94193548 0,6.32580645 C0,8.8483871 1.87419355,10.9387097 4.30322581,11.2774194 L4.30322581,14.0258065 L2.50967742,14.0258065 C2.12580645,14.0258065 1.81290323,14.3387097 1.81290323,14.7225806 C1.81290323,15.1064516 2.12580645,15.4193548 2.50967742,15.4193548 L7.49354839,15.4193548 C7.87741935,15.4193548 8.19032258,15.1064516 8.19032258,14.7225806 C8.19032258,14.3387097 7.87741935,14.0258065 7.49354839,14.0258065 L5.7,14.0258065 L5.7,11.2774194 C8.12580645,10.9387097 10,8.84516129 10,6.32580645 Z" id="Path"></path>
            <path d="M5,0 C3.50322581,0 2.29032258,1.21290323 2.29032258,2.70967742 L2.29032258,6.28064516 C2.29032258,7.77741935 3.50322581,8.99032258 5,8.99032258 C6.49677419,8.99032258 7.70967742,7.77741935 7.70967742,6.28064516 L7.70967742,2.70967742 C7.70967742,1.21290323 6.49677419,0 5,0 Z M5.00322581,1.80322581 C4.51612903,1.80322581 4.11935484,2.2 4.11935484,2.68709677 C4.11935484,2.69354839 4.11935484,2.7 4.11935484,2.70645161 L4.11290323,5.92903226 C4.11290323,6.1516129 3.93225806,6.32903226 3.71290323,6.32903226 C3.49032258,6.32903226 3.31290323,6.1483871 3.31290323,5.92903226 L3.31290323,2.68709677 L3.31290323,2.68387097 C3.31290323,1.7516129 4.07096774,0.993548387 5.00322581,0.993548387 C5.22580645,0.993548387 5.40645161,1.17419355 5.40645161,1.39677419 C5.40645161,1.62258065 5.22580645,1.80322581 5.00322581,1.80322581 Z" id="Shape"></path>
        </g>
    </g>
</svg>