<?xml version="1.0" encoding="UTF-8"?>
<svg width="24px" height="24px" viewBox="0 0 24 24" version="1.1" xmlns="http://www.w3.org/2000/svg" xmlns:xlink="http://www.w3.org/1999/xlink">
    <title>reddit</title>
    <g id="reddit" stroke="none" stroke-width="1" fill="none" fill-rule="evenodd">
        <rect id="16x16" x="0" y="0" width="24" height="24"></rect>
        <g transform="translate(4.000000, 5.000000)" fill="#FFFFFF" fill-rule="nonzero" id="Shape">
            <path d="M16,6.57136399 C16,5.55477642 15.1725034,4.72799475 14.156452,4.72799475 C13.7162525,4.72799475 13.3044701,4.88902594 12.9722204,5.17069648 C12.9614969,5.1773093 12.950416,5.18356468 12.9398712,5.19035622 C11.7411629,4.42344742 10.1515831,3.93374103 8.39328696,3.86725534 L9.44275992,0.88290059 L12.0621529,1.50915285 C12.0642976,2.33719096 12.737912,3.01044788 13.5670171,3.01044788 C14.3966584,3.01044788 15.0722387,2.33540371 15.0722387,1.50539963 C15.0722387,0.675043461 14.3966584,5.35746329e-16 13.5670171,5.35746329e-16 C12.9362967,5.35746329e-16 12.397441,0.389977149 12.1740348,0.940092577 L9.07065456,0.198383991 L7.78186887,3.86046379 C5.9483295,3.89495771 4.28672354,4.3910982 3.04333399,5.1837434 C2.70858214,4.89331534 2.29090191,4.72781603 1.8426597,4.72781603 C0.826245492,4.72781603 -4.21652203e-16,5.55477642 -4.21652203e-16,6.57118527 C-4.21652203e-16,7.19993968 0.324385803,7.7807958 0.850015912,8.11894343 C0.818024144,8.30213651 0.797649499,8.48783175 0.797649499,8.67710148 C0.797649499,11.3376012 4.02238932,13.5021392 7.98579405,13.5021392 C11.9499137,13.5021392 15.1748269,11.3376012 15.1748269,8.67710148 C15.1748269,8.49355094 15.1564182,8.31303873 15.1262137,8.13467122 C15.665963,7.79902575 16,7.20976955 16,6.57136399 Z M10.4302153,8.95787839 C9.80467797,8.95787839 9.29817143,8.45137185 9.29817143,7.82511959 C9.29817143,7.19993968 9.80467797,6.69307569 10.4302153,6.69307569 C11.0557527,6.69307569 11.5631529,7.19993968 11.5631529,7.82511959 C11.5631529,8.45137185 11.055574,8.95787839 10.4302153,8.95787839 Z M10.6555875,10.8891803 C10.6216298,10.923853 9.80968227,11.7508133 7.97310457,11.7508133 C6.12633956,11.7508133 5.38820547,10.912772 5.35728605,10.8766696 C5.2538043,10.7556728 5.26792357,10.572301 5.3890991,10.4686405 C5.51009589,10.3658736 5.69150173,10.3790993 5.79623456,10.4983088 C5.81267725,10.5168962 6.42892092,11.1722807 7.97310457,11.1722807 C9.54302463,11.1722807 10.2320093,10.4934833 10.2393371,10.4868704 C10.3501465,10.3732014 10.5335184,10.3710567 10.6475449,10.4820449 C10.7613927,10.5926756 10.7655034,10.7735453 10.6555875,10.8891803 Z M4.5700026,7.82511959 C4.5700026,7.19993968 5.07633041,6.69307569 5.70294013,6.69307569 C6.32740514,6.69307569 6.83498403,7.19993968 6.83498403,7.82511959 C6.83498403,8.45137185 6.32740514,8.95787839 5.70294013,8.95787839 C5.07650914,8.95787839 4.5700026,8.45137185 4.5700026,7.82511959 Z"></path>
        </g>
    </g>
</svg>