<?xml version="1.0" encoding="UTF-8"?>
<svg width="24px" height="24px" viewBox="0 0 24 24" version="1.1" xmlns="http://www.w3.org/2000/svg" xmlns:xlink="http://www.w3.org/1999/xlink">
    <title>resources</title>
    <g id="resources" stroke="none" stroke-width="1" fill="none" fill-rule="evenodd">
        <rect id="16x16" x="0" y="0" width="24" height="24"></rect>
        <g transform="translate(4.000000, 7.000000)" fill="#FFFFFF" fill-rule="nonzero">
            <polygon id="Path" points="6.64561786 7.05498095 9.659227 5.30430049 6.64561786 3.55362003"></polygon>
            <path d="M14.6586826,0 L1.33260751,0 C0.598605629,0.00475097021 0.00475097021,0.598605629 0,1.33260751 L0,9.27599347 C0,10.0133945 0.595222055,10.6125225 1.33260751,10.6173108 L14.6586826,10.6173108 C15.3994718,10.6173108 16,10.0167826 16,9.27599347 L16,1.33260751 C15.9952117,0.595222055 15.3960836,0 14.6586826,0 Z M11.3228089,5.87044094 L6.35819271,8.76211214 C6.2560677,8.81629761 6.14278628,8.84610851 6.02721829,8.84921067 C5.91427581,8.84707128 5.80359713,8.81715813 5.70495373,8.76211214 C5.50233395,8.64514773 5.37650508,8.42991414 5.37397931,8.19597169 L5.37397931,2.42133914 C5.374724,2.18690758 5.501034,1.970851 5.70495373,1.85519869 C5.90550954,1.73283575 6.1576369,1.73283575 6.35819271,1.85519869 L11.3228089,4.73816004 C11.5208238,4.85852569 11.642673,5.07258512 11.6451225,5.30430049 C11.6479431,5.53740793 11.5247114,5.75389605 11.3228089,5.87044094 Z" id="Shape"></path>
        </g>
    </g>
</svg>