<?xml version="1.0" encoding="UTF-8"?>
<svg width="24px" height="24px" viewBox="0 0 24 24" version="1.1" xmlns="http://www.w3.org/2000/svg" xmlns:xlink="http://www.w3.org/1999/xlink">
    <title>search</title>
    <g id="search" stroke="none" stroke-width="1" fill="none" fill-rule="evenodd">
        <rect id="16x16" x="0" y="0" width="24" height="24"></rect>
        <g transform="translate(4.000000, 4.000000)" fill="#FFFFFF" fill-rule="nonzero" id="Shape">
            <path d="M15.5187447,13.1949635 L12.8291048,10.5053236 C12.6461947,10.3223749 12.3496183,10.3223749 12.1666696,10.5053236 L11.8827743,10.7892189 L10.7651711,9.67157695 C11.5485024,8.6568147 12.0153077,7.38580052 12.0153077,6.00761521 C12.0152691,2.69501399 9.3202551,0 6.00765387,0 C2.69501399,0 0,2.69501399 0,6.00761521 C0,9.3202551 2.69501399,12.0152691 6.00765387,12.0152691 C7.38580052,12.0152691 8.6568147,11.5485024 9.67161561,10.7651324 L10.7892189,11.8827743 L10.5053236,12.1666696 C10.3224135,12.3495796 10.3224135,12.6461561 10.5053236,12.8291048 L13.1950022,15.5187447 C13.8366759,16.1604184 14.8770711,16.1604184 15.5187447,15.5187447 C16.1604184,14.8770324 16.1604184,13.8366372 15.5187447,13.1949635 Z M6.00765387,3.0674453 C4.38640039,3.0674453 3.0674453,4.38640039 3.0674453,6.00765387 C3.0674453,6.43471463 2.7212655,6.78089443 2.29420474,6.78089443 C1.86714398,6.78089443 1.52096418,6.43471463 1.52096418,6.00765387 C1.52096418,3.53370936 3.5336707,1.52096418 6.00765387,1.52096418 C6.43471463,1.52096418 6.78089443,1.86714398 6.78089443,2.29420474 C6.78089443,2.7212655 6.43471463,3.0674453 6.00765387,3.0674453 Z"></path>
        </g>
    </g>
</svg>