<svg width="800" height="800" viewBox="0 0 800 800" fill="none" xmlns="http://www.w3.org/2000/svg">
<g clip-path="url(#clip0_141_17)">
<path fill-rule="evenodd" clip-rule="evenodd" d="M400 0C293.913 0 192.172 42.1427 117.157 117.157C42.1427 192.172 0 293.913 0 400C0 506.087 42.1427 607.828 117.157 682.843C192.172 757.857 293.913 800 400 800C506.087 800 607.828 757.857 682.843 682.843C757.857 607.828 800 506.087 800 400C800 293.913 757.857 192.172 682.843 117.157C607.828 42.1427 506.087 0 400 0ZM75 400C75 323.75 101.25 253.65 145.2 198.25L234.55 287.6C211.98 320.734 199.938 359.909 200 400C200 441.7 212.75 480.4 234.55 512.4L145.2 601.75C99.6382 544.385 74.8891 473.257 75 400ZM198.25 654.8L287.6 565.45C319.6 587.25 358.3 600 400 600C441.7 600 480.4 587.25 512.4 565.45L601.75 654.8C544.385 700.362 473.257 725.111 400 725C326.743 725.107 255.617 700.358 198.25 654.8ZM654.8 601.8C700.372 544.421 725.122 473.275 725 400C725.107 326.743 700.358 255.617 654.8 198.25L565.45 287.6C587.25 319.6 600 358.3 600 400C600 441.7 587.25 480.4 565.45 512.4L654.8 601.75V601.8ZM601.8 145.2C544.421 99.6275 473.275 74.8777 400 75C326.743 74.8891 255.615 99.6382 198.25 145.2L287.6 234.55C320.734 211.98 359.909 199.938 400 200C441.7 200 480.4 212.75 512.4 234.55L601.75 145.2H601.8ZM275 400C275 366.848 288.17 335.054 311.612 311.612C335.054 288.17 366.848 275 400 275C433.152 275 464.946 288.17 488.388 311.612C511.83 335.054 525 366.848 525 400C525 433.152 511.83 464.946 488.388 488.388C464.946 511.83 433.152 525 400 525C366.848 525 335.054 511.83 311.612 488.388C288.17 464.946 275 433.152 275 400Z" fill="white"/>
</g>
<defs>
<clipPath id="clip0_141_17">
<rect width="800" height="800" fill="white"/>
</clipPath>
</defs>
</svg>
