<?xml version="1.0" encoding="UTF-8"?>
<svg width="24px" height="24px" viewBox="0 0 24 24" version="1.1" xmlns="http://www.w3.org/2000/svg" xmlns:xlink="http://www.w3.org/1999/xlink">
    <title>telegram</title>
    <g id="telegram" stroke="none" stroke-width="1" fill="none" fill-rule="evenodd">
        <rect id="16x16" x="0" y="0" width="24" height="24"></rect>
        <g transform="translate(5.000000, 5.000000)" fill="#FFFFFF" id="Path">
            <path d="M14.8786793,0.0914857078 C14.7950994,0.00909386218 14.6729138,-0.0205269043 14.5608823,0.0144440024 L0.192604263,5.97554595 C0.0768179138,6.02516411 0.00126816848,6.13848873 0,6.26445235 C0.000201715923,6.39362094 0.0809370551,6.50895714 0.202234476,6.55335874 L4.15062187,8.08456264 C4.24434459,8.13256782 4.35543576,8.13256782 4.44915848,8.08456264 L9.69762466,4.34803993 C9.83059015,4.23900822 10.0267676,4.25841039 10.1357994,4.39137589 C10.2448311,4.52434138 10.2254289,4.72051888 10.0924634,4.82955059 L5.72034662,9.01869331 C5.66034765,9.07697434 5.62574515,9.1565601 5.62404449,9.24018822 L5.62404449,13.4967424 C5.62722074,13.6361936 5.72095982,13.7572732 5.8551696,13.795279 C5.99033998,13.8349565 6.13485148,13.7747434 6.20185728,13.6508258 L8.18568119,10.2128397 C8.23099779,10.1420467 8.32256279,10.1170744 8.39754588,10.1550585 L12.0377665,12.1581428 C12.1242606,12.206275 12.2286105,12.2099294 12.3182599,12.1679659 C12.4079092,12.1260024 12.4719442,12.0435295 12.4903865,11.9462781 L14.9942419,0.390022316 C15.0168409,0.276522808 14.9718079,0.160187477 14.8786793,0.0914857078 Z"></path>
        </g>
    </g>
</svg>