<?xml version="1.0" encoding="UTF-8"?>
<svg width="24px" height="24px" viewBox="0 0 24 24" version="1.1" xmlns="http://www.w3.org/2000/svg" xmlns:xlink="http://www.w3.org/1999/xlink">
    <title>twitter</title>
    <g id="twitter" stroke="none" stroke-width="1" fill="none" fill-rule="evenodd">
        <rect id="16x16" x="0" y="0" width="24" height="24"></rect>
        <g transform="translate(5.000000, 6.000000)" fill="#FFFFFF" id="Path">
            <path d="M12.5883109,2.85205172 C12.5883109,2.97793482 12.5883109,3.09482628 12.5883109,3.22070939 C12.6102068,5.39663466 11.7548748,7.48969145 10.2153397,9.02753473 C8.67580464,10.565378 6.58180868,11.4184081 4.4059088,11.3941198 L4.4059088,11.3941198 C2.84395956,11.3996994 1.31377128,10.9531342 0,10.1083138 C0.227590478,10.1217455 0.455774968,10.1217455 0.683365446,10.1083138 C1.98777022,10.1206053 3.25705617,9.68587486 4.28002569,8.87645763 C3.04724334,8.862621 1.96119982,8.06256893 1.58253051,6.88930284 C2.01559304,6.97044848 2.46144182,6.95199957 2.88631985,6.83535294 C1.5508333,6.57620255 0.57933438,5.41715558 0.557482338,4.0569329 L0.557482338,4.0569329 C0.95758975,4.27807047 1.40437522,4.40132163 1.86127168,4.41659892 C0.601654968,3.57021022 0.209298183,1.89484675 0.962106615,0.577164112 C2.43179362,2.36078339 4.58788839,3.43883077 6.89659602,3.54440881 C6.58886933,2.27541017 7.17707865,0.958719857 8.32759139,0.341165229 C9.47810412,-0.276389398 10.9005241,-0.0389339074 11.7880539,0.918846835 C12.4225632,0.787487634 13.030477,0.55040128 13.5863841,0.217498088 C13.3797473,0.880822238 12.9428563,1.44846162 12.3545279,1.8180119 C12.9213312,1.74577254 13.4752106,1.59443936 14,1.36842937 C13.6193991,1.94138456 13.141659,2.44346809 12.5883109,2.85205172"></path>
        </g>
    </g>
</svg>